# xmcd
#
# Track frame offsets: 
#        150
#        16458
#        32410
#        50750
#        72083
#        92390
#        108238
#        125543
#        148493
#        163785
#        185313
#        204120
#
# Disc length: 2947 seconds
#
# Revision: 1
# Processed by: cddbd v1.5.2PL0 Copyright (c) Steve Scherf et al.
# Submitted via: ExactAudioCopy v0.99pb4
#
DISCID=9f0b810c
DTITLE=Mulens Portland Combo - Blå Stikke
DYEAR=1993
DGENRE=Blues
TTITLE0=Ain't That I Don't Love You
TTITLE1=Say You Will
TTITLE2=I've Got What It Takes
TTITLE3=Ain't Living Long Like This
TTITLE4=Help Me Through The Day
TTITLE5=My Babe
TTITLE6=Crossfire
TTITLE7=Driftin'
TTITLE8=Things I Do For You
TTITLE9=Look What You've Done
TTITLE10=Shake Your Hip
TTITLE11=Need Your Love So Bad
EXTD=
EXTT0=
EXTT1=
EXTT2=
EXTT3=
EXTT4=
EXTT5=
EXTT6=
EXTT7=
EXTT8=
EXTT9=
EXTT10=
EXTT11=
PLAYORDER=
